#N canvas 827 239 527 327 12;
#X obj 19 138 tgl 25 0 empty empty empty 17 7 0 10 #333333 #eeeeee #e4e4e4 0 1;
#X obj 19 99 netsend -b;
#X obj 69 138 sel 0;
#X obj 104 169 fudiparse;
#X listbox 104 251 65 0 0 0 - - - 16;
#X obj 104 222 list prepend;
#X obj 69 169 bng 25 250 50 0 empty empty empty 17 7 0 10 #333333 #eeeeee #e4e4e4;
#X obj 19 13 loadbang;
#X msg 183 55 connect djxmmx.net 17;
#X msg 19 55 connect localhost 17;
#X connect 1 0 0 0;
#X connect 1 1 2 0;
#X connect 2 0 6 0;
#X connect 2 1 3 0;
#X connect 3 0 5 0;
#X connect 4 0 5 1;
#X connect 5 0 4 0;
#X connect 6 0 5 1;
#X connect 7 0 9 0;
#X connect 8 0 1 0;
#X connect 9 0 1 0;
